<svg width="25" height="24" viewBox="0 0 25 24" fill="none" xmlns="http://www.w3.org/2000/svg">
<path d="M12.8343 3.62676C9.09264 6.66293 4.90701 4.63749 4.90701 4.63749L4.34418 12.1169C4.34418 12.1169 16.576 0.590596 12.8343 3.62676Z" fill="#3EC1E6"/>
<path d="M12.8106 4.02709C9.0689 7.06326 4.88327 5.03783 4.88327 5.03783L4.32043 12.5173C4.32043 12.5173 16.5523 0.990925 12.8106 4.02709Z" fill="#34A3C2"/>
<path d="M20.504 11.2964C17.4679 15.0381 19.4933 19.2238 19.4933 19.2238L12.0139 19.7866C12.0139 19.7866 23.5402 7.55474 20.504 11.2964Z" fill="#3EC1E6"/>
<path d="M20.1037 11.3202C17.0675 15.0619 19.093 19.2476 19.093 19.2476L11.6135 19.8104C11.6135 19.8104 23.1399 7.57854 20.1037 11.3202Z" fill="#34A3C2"/>
<path d="M14.0354 18.2567C13.6311 18.661 12.9771 18.661 12.5728 18.2567L5.89795 11.5819C5.49365 11.1776 5.49365 10.5236 5.89795 10.1193C6.30224 9.71497 6.95625 9.71497 7.36054 10.1193L14.0354 16.7941C14.4396 17.1984 14.4396 17.8524 14.0354 18.2567Z" fill="#556566"/>
<path d="M20.6982 1.74401C20.3693 1.34368 20.0799 0.939389 19.8342 0.535095C17.1151 1.12568 13.6429 2.37423 11.0229 4.99025L5.79883 10.2144L8.12551 12.541L13.3496 7.31693C15.8784 4.78811 18.6094 2.945 20.6943 1.74005L20.6982 1.74401Z" fill="#BFDFE1"/>
<path d="M19.5924 12.6758C19.6558 12.6084 19.7192 12.5371 19.7787 12.4657C19.9214 12.3032 20.0601 12.1367 20.1909 11.9663C20.2504 11.891 20.3098 11.8157 20.3653 11.7404C20.4327 11.6532 20.4961 11.566 20.5595 11.4788C20.619 11.3955 20.6745 11.3123 20.7339 11.233C20.7894 11.1498 20.8489 11.0665 20.9044 10.9833C20.9599 10.9001 21.0153 10.8168 21.0708 10.7296C21.1303 10.6385 21.1858 10.5513 21.2373 10.4601C21.2849 10.3808 21.3324 10.3016 21.38 10.2183C21.4078 10.1708 21.4355 10.1272 21.4633 10.0796C21.5069 10.0003 21.5504 9.92104 21.598 9.84177C21.7764 9.52468 21.9389 9.19966 22.0895 8.8786C22.1212 8.80329 22.1569 8.73194 22.1886 8.65663C22.2362 8.5615 22.2798 8.46241 22.3194 8.36729C22.3551 8.28801 22.3868 8.21271 22.4185 8.13343C22.5334 7.8639 22.6365 7.59834 22.7356 7.33277C22.7911 7.17819 22.8466 7.02757 22.8981 6.87695C22.9338 6.77786 22.9655 6.6748 22.9972 6.57968C23.0249 6.49644 23.0527 6.40923 23.0804 6.32203C23.1597 6.06836 23.235 5.81865 23.3024 5.56894C23.346 5.41832 23.3817 5.2677 23.4213 5.12104C23.4926 4.83962 23.5561 4.56613 23.6155 4.2966C23.2192 4.05878 22.8188 3.78133 22.4264 3.46423C21.2215 5.54912 19.3744 8.28801 16.8456 10.8208L11.6215 16.0449L13.9323 18.3557L19.1564 13.1316C19.303 12.981 19.4497 12.8304 19.5884 12.6758H19.5924Z" fill="#BFDFE1"/>
<path d="M22.4304 3.46425C22.1093 3.20662 21.7882 2.92123 21.4791 2.61206C21.1976 2.33064 20.9361 2.0413 20.6943 1.74799C18.6094 2.95294 15.8784 4.79604 13.3496 7.32486L8.12549 12.549L11.6214 16.0449L16.8456 10.8208C19.3783 8.28803 21.2254 5.55311 22.4264 3.46425H22.4304Z" fill="#9BD4D8"/>
<path d="M24.115 0.0158581C24.115 0.0158581 24.1467 0.00396367 24.1507 0C24.0595 0 22.2441 0.00792973 19.8342 0.535097C20.08 0.935428 20.3693 1.34369 20.6983 1.74402C22.5335 0.681754 23.8692 0.114946 24.115 0.0118905V0.0158581Z" fill="#34A3C2"/>
<path d="M23.6235 4.29663C23.675 4.06673 23.7186 3.84477 23.7582 3.62281C23.7741 3.5475 23.79 3.47219 23.7979 3.39688C23.8336 3.20266 23.8653 3.0124 23.893 2.83007C23.9128 2.69927 23.9326 2.57244 23.9485 2.44956C24.0357 1.8233 24.0872 1.29217 24.115 0.879949C24.1189 0.836349 24.1229 0.796715 24.1229 0.753115C24.1467 0.396385 24.1546 0.150632 24.1546 0.0475769C24.0515 0.289361 23.4887 1.62115 22.4304 3.45633C22.8228 3.77343 23.2232 4.05485 23.6195 4.2887L23.6235 4.29663Z" fill="#42CDF5"/>
<path d="M24.1585 0.0158581V0.00792903C24.1585 0.00396536 24.1585 0 24.1585 0C24.1585 0 24.1585 0 24.1546 0C24.1466 0 24.1387 0.00793072 24.1189 0.0158581H24.1585Z" fill="#BFDFE1"/>
<path d="M24.1705 0.0198306V0.0158691C24.1705 0.0158691 24.1705 0.0158691 24.1625 0.0158691H24.1546C24.1546 0.0158691 24.1546 0.0356838 24.1546 0.0555022C24.1625 0.0356838 24.1665 0.0237943 24.1705 0.0198306Z" fill="#BFDFE1"/>
<path d="M20.6982 1.74403C20.94 2.03734 21.1977 2.32668 21.4831 2.6081C21.7922 2.91727 22.1133 3.20265 22.4343 3.46029C23.4926 1.62908 24.0594 0.297288 24.1585 0.0515409C24.1585 0.0317226 24.1585 0.0198292 24.1585 0.0119019H24.1189C23.8731 0.114957 22.5374 0.677802 20.7022 1.74403H20.6982Z" fill="#3EC1E6"/>
<path d="M0 24C0 24 4.53047 23.56 7.59835 20.4921L10.801 17.2895L6.71049 13.199L3.50785 16.4016C0.439969 19.4695 0 24 0 24Z" fill="#E47E30"/>
<path d="M1.88275 22.1173C1.88275 22.1173 4.9863 21.816 7.08704 19.7153L9.28292 17.5234L6.4806 14.7211L4.28869 16.913C2.18795 19.0137 1.88671 22.1173 1.88671 22.1173H1.88275Z" fill="#F3AA43"/>
<path d="M4.03503 19.965C4.03503 19.965 6.02479 19.7708 7.37243 18.4231L8.77954 17.016L6.984 15.2205L5.57689 16.6276C4.22925 17.9752 4.03503 19.965 4.03503 19.965Z" fill="#FCE2AA"/>
<path d="M16.4175 7.80842C15.3711 6.76202 15.375 5.06557 16.4175 4.01916C17.4639 2.97672 19.1603 2.97275 20.2067 4.01916C21.2492 5.06557 21.2531 6.76598 20.2067 7.80842C19.1643 8.85483 17.4639 8.85483 16.4175 7.80842ZM19.6241 4.60182C18.8987 3.87647 17.7215 3.87647 17.0001 4.60182C16.2748 5.32717 16.2748 6.50438 17.0001 7.22576C17.7255 7.95112 18.8987 7.95112 19.6241 7.22576C20.3494 6.50041 20.3494 5.32717 19.6241 4.60182Z" fill="#556566"/>
<path d="M19.7708 7.37241C18.9662 8.17704 17.6582 8.17704 16.8535 7.37241C16.0489 6.56779 16.0489 5.25978 16.8535 4.45515C17.6582 3.65053 18.9662 3.65053 19.7708 4.45515C20.5754 5.25978 20.5754 6.56382 19.7708 7.37241Z" fill="#BFDFE1"/>
<path d="M19.6439 6.2824C19.3784 6.54797 18.9463 6.54797 18.6807 6.2824C18.4152 6.01684 18.4152 5.5848 18.6807 5.31923C18.9463 5.05366 19.3784 5.05366 19.6439 5.31923C19.9095 5.5848 19.9095 6.01684 19.6439 6.2824Z" fill="white"/>
<path d="M11.5461 18.5698C11.1775 18.9384 10.579 18.9424 10.2064 18.5698L5.62443 13.9878C5.25581 13.6192 5.25581 13.0167 5.62443 12.6481C5.80676 12.4618 6.0525 12.3706 6.29429 12.3706C6.53607 12.3706 6.77786 12.4657 6.96415 12.6481L11.5461 17.2301C11.9187 17.6026 11.9148 18.2012 11.5461 18.5698Z" fill="#657576"/>
<path d="M11.5462 18.5698C11.1775 18.9384 10.579 18.9424 10.2065 18.5698L7.0593 15.4226C6.69068 15.054 6.69068 14.4515 7.0593 14.0829C7.24559 13.8966 7.48738 13.8055 7.72916 13.8055C7.97095 13.8055 8.21272 13.9006 8.39901 14.0829L11.5462 17.2301C11.9187 17.6026 11.9148 18.2012 11.5462 18.5698Z" fill="#95A5A6"/>
<path d="M10.1113 17.1349C9.7427 17.5035 9.14418 17.5075 8.7716 17.1349L7.0593 15.4226C6.69068 15.054 6.69068 14.4515 7.0593 14.0829C7.24559 13.8966 7.48738 13.8055 7.72916 13.8055C7.97095 13.8055 8.21272 13.9006 8.39901 14.0829L10.1113 15.7952C10.4839 16.1678 10.4799 16.7663 10.1113 17.1349Z" fill="#859596"/>
<path d="M14.2335 12.0693L5.56897 18.4786L11.9743 9.81006L15.1016 8.94202L14.2335 12.0693Z" fill="#3EC1E6"/>
<path d="M15.1016 8.94202L5.56897 18.4786L11.9743 9.81006L15.1016 8.94202Z" fill="#34A3C2"/>
</svg>
